<svg width="24" height="24" viewBox="0 0 24 24" fill="none" xmlns="http://www.w3.org/2000/svg">
<path d="M19.887 12.5308L21.243 13.7383C21.4934 13.9473 21.6607 14.239 21.7146 14.5606C21.7685 14.8823 21.7055 15.2126 21.537 15.4918L19.902 18.2848C19.7751 18.4986 19.594 18.6751 19.377 18.7963C19.1574 18.9178 18.9109 18.9823 18.66 18.9838C18.5043 18.9848 18.3494 18.9615 18.201 18.9148L16.4655 18.3418C16.1615 18.5368 15.8455 18.7113 15.5175 18.8653L15.153 20.6248C15.0855 20.9485 14.9053 21.2377 14.6445 21.4408C14.3803 21.6476 14.0528 21.7568 13.7175 21.7498H10.332C9.99658 21.7568 9.6691 21.6476 9.40496 21.4408C9.14468 21.2374 8.96502 20.9483 8.89796 20.6248L8.53196 18.8653C8.20826 18.7093 7.89419 18.5339 7.59146 18.3403L5.84996 18.9148C5.70146 18.9615 5.54661 18.9848 5.39096 18.9838C5.14055 18.982 4.89457 18.9176 4.67546 18.7963C4.45862 18.6755 4.27751 18.4996 4.15046 18.2863L2.45696 15.4918C2.2809 15.2101 2.21363 14.8738 2.26775 14.5461C2.32187 14.2183 2.49368 13.9215 2.75096 13.7113L4.10546 11.9998V11.4688L2.74946 10.2613C2.49905 10.0524 2.33174 9.76065 2.27781 9.43901C2.22388 9.11736 2.2869 8.78703 2.45546 8.50782L4.14896 5.71482C4.27581 5.50102 4.45693 5.32456 4.67396 5.20332C4.89307 5.08208 5.13905 5.01762 5.38946 5.01582C5.54371 5.00609 5.69853 5.02026 5.84846 5.05782L7.55546 5.65782C7.86046 5.46282 8.17646 5.28832 8.50346 5.13432L8.86946 3.37482C8.93652 3.05138 9.11618 2.76222 9.37646 2.55882C9.6406 2.35204 9.96808 2.24288 10.3035 2.24982H13.6605C13.9958 2.24288 14.3233 2.35204 14.5875 2.55882C14.85 2.76432 15.03 3.05382 15.0945 3.37482L15.4605 5.13432C15.7855 5.28932 16.099 5.46432 16.401 5.65932L18.144 5.08632C18.3374 5.02339 18.5418 5.0013 18.7442 5.02144C18.9467 5.04158 19.1427 5.10351 19.32 5.20332C19.5375 5.32632 19.7175 5.50332 19.845 5.71332L21.537 8.50782C21.7154 8.78716 21.7861 9.12187 21.7358 9.4495C21.6856 9.77713 21.5179 10.0753 21.264 10.2883L19.887 11.4613V12.5308Z" stroke="#727272" stroke-width="2"/>
<path d="M15.75 12C15.75 12.9946 15.3549 13.9484 14.6517 14.6517C13.9484 15.3549 12.9946 15.75 12 15.75C11.0054 15.75 10.0516 15.3549 9.34835 14.6517C8.64509 13.9484 8.25 12.9946 8.25 12C8.25 11.0054 8.64509 10.0516 9.34835 9.34835C10.0516 8.64509 11.0054 8.25 12 8.25C12.9946 8.25 13.9484 8.64509 14.6517 9.34835C15.3549 10.0516 15.75 11.0054 15.75 12Z" stroke="#727272" stroke-width="2"/>
</svg>
