<svg width="24" height="24" viewBox="0 0 24 24" fill="none" xmlns="http://www.w3.org/2000/svg">
<path d="M18 21V19C18 17.9391 17.5786 16.9217 16.8284 16.1716C16.0783 15.4214 15.0609 15 14 15H7C5.93913 15 4.92172 15.4214 4.17157 16.1716C3.42143 16.9217 3 17.9391 3 19V21" stroke="#2B5BBB" stroke-width="2" stroke-linecap="round" stroke-linejoin="round"/>
<path d="M10.5 11C12.7091 11 14.5 9.20914 14.5 7C14.5 4.79086 12.7091 3 10.5 3C8.29086 3 6.5 4.79086 6.5 7C6.5 9.20914 8.29086 11 10.5 11Z" stroke="#2B5BBB" stroke-width="2" stroke-linecap="round" stroke-linejoin="round"/>
<path d="M17.5 11.5L19 13L22 9" stroke="#2B5BBB" stroke-width="2" stroke-linecap="round" stroke-linejoin="round"/>
</svg>
