<svg width="24" height="24" viewBox="0 0 24 24" fill="none" xmlns="http://www.w3.org/2000/svg">
<rect width="24" height="24" fill="white"/>
<path d="M18.1791 3.48399C18.489 3.1741 18.9093 3 19.3476 3C19.7858 3 20.2061 3.1741 20.516 3.48399C20.8259 3.79388 21 4.21418 21 4.65243C21 5.09068 20.8259 5.51099 20.516 5.82088L13.1159 13.221L10 14L10.779 10.8841L18.1791 3.48399Z" stroke="#2B5BBB" stroke-width="2" stroke-linecap="round" stroke-linejoin="round"/>
<path d="M7 17.1968H16" stroke="#2B5BBB" stroke-width="2" stroke-linecap="round" stroke-linejoin="round"/>
<path d="M10 3H5C3.89543 3 3 3.89543 3 5V19C3 20.1046 3.89543 21 5 21H19C20.1046 21 21 20.1046 21 19V12" stroke="#2B5BBB" stroke-width="2" stroke-linecap="round"/>
</svg>
