<svg width="24" height="24" viewBox="0 0 24 24" fill="none" xmlns="http://www.w3.org/2000/svg">
<path d="M17 21V19C17 17.9391 16.6313 16.9217 15.9749 16.1716C15.3185 15.4214 14.4283 15 13.5 15H6.5C5.57174 15 4.6815 15.4214 4.02513 16.1716C3.36875 16.9217 3 17.9391 3 19V21" stroke="#727272" stroke-width="2" stroke-linecap="round" stroke-linejoin="round"/>
<path d="M10 11C12.2091 11 14 9.20914 14 7C14 4.79086 12.2091 3 10 3C7.79086 3 6 4.79086 6 7C6 9.20914 7.79086 11 10 11Z" stroke="#727272" stroke-width="2" stroke-linecap="round" stroke-linejoin="round"/>
<path d="M22 20.9999V18.9999C21.9993 18.1136 21.7044 17.2527 21.1614 16.5522C20.6184 15.8517 19.8581 15.3515 19 15.1299" stroke="#727272" stroke-width="2" stroke-linecap="round" stroke-linejoin="round"/>
<path d="M17 3.12988C17.8604 3.35018 18.623 3.85058 19.1676 4.55219C19.7122 5.2538 20.0078 6.11671 20.0078 7.00488C20.0078 7.89305 19.7122 8.75596 19.1676 9.45757C18.623 10.1592 17.8604 10.6596 17 10.8799" stroke="#727272" stroke-width="2" stroke-linecap="round" stroke-linejoin="round"/>
</svg>
